<?xml version="1.0" encoding="UTF-8"?>
<svg width="19px" height="16px" viewBox="0 0 19 16" version="1.1" xmlns="http://www.w3.org/2000/svg" xmlns:xlink="http://www.w3.org/1999/xlink">
    <!-- Generator: Sketch 55.2 (78181) - https://sketchapp.com -->
    <title>shape</title>
    <desc>Created with Sketch.</desc>
    <g id="#-Symbols" stroke="none" stroke-width="1" fill="none" fill-rule="evenodd">
        <g id="icon/check-mark/16px" fill="#FFFFFF" fill-rule="nonzero">
            <g id="shape">
                <path d="M18.8797394,2.46940532 L16.5305412,0.123092421 C16.451614,0.0442884014 16.3444458,0 16.2326844,0 C16.1209231,0 16.0137549,0.0442884014 15.9348277,0.123092421 L6.01299926,10.0111253 C5.93407204,10.0899294 5.82690377,10.1342178 5.71514247,10.1342178 C5.60338117,10.1342178 5.4962129,10.0899294 5.41728568,10.0111253 L3.06808751,7.66481244 C2.98916028,7.58600842 2.88199202,7.54172002 2.77023072,7.54172002 C2.65846941,7.54172002 2.55130115,7.58600842 2.47237393,7.66481244 L0.123175753,10.0111253 C-0.0410585842,10.1747387 -0.0410585842,10.439956 0.123175753,10.6035693 L5.41728568,15.8769076 C5.4962129,15.9557116 5.60338117,16 5.71514247,16 C5.82690377,16 5.93407204,15.9557116 6.01299926,15.8769076 L18.8797394,3.05598354 C19.0400869,2.89306416 19.0400869,2.6323247 18.8797394,2.46940532 Z" id="Path"></path>
            </g>
        </g>
    </g>
</svg>